<svg xmlns="http://www.w3.org/2000/svg" viewBox="88 106 191.26 108"><g fill="#fff"><path d="M88 106l27.076 65.496V214H143.2v-42.504L170.74 106h-30.858l-10.588 37.664h-.302L118.403 106H88zm119.832 87.73h-7.866V167.4h7.866q3.933 0 6.958 3.327 3.025 3.328 3.025 9.68 0 6.807-3.025 10.06-3.025 3.252-6.958 3.252zm-1.06-45.377h-6.807V126.27h6.807q4.387 0 6.656 3.328 2.268 3.327 2.268 7.865 0 4.387-2.268 7.64-2.27 3.252-6.656 3.252z"/><path d="M214.336 106h-42.504v108h42.504q8.773 0 14.975-2.345 6.202-2.344 10.06-6.58 3.857-4.236 5.672-10.135 1.815-5.9 1.815-12.857 0-4.235-1.134-8.395-1.135-4.16-3.555-7.64-2.42-3.48-6.202-5.823-3.78-2.345-9.075-2.798v-.303q4.538-.908 7.714-3.176 3.177-2.27 5.22-5.52 2.042-3.253 3.025-7.26.983-4.008.983-8.244 0-12.252-7.185-19.588-7.185-7.336-22.31-7.336z"/></g><path d="M279.26 184.05h-25.41V214h25.41v-29.95z" fill="#706fd3"/></svg>